PathFileType	4	(X/Y/Z)	Patient4_TMGait_0pt4_01_left_07.trc.trc
DataRate	CameraRate	NumFrames	NumMarkers	Units	OrigDataRate	OrigDataStartFrame	OrigNumFrames
74.866310160428	74.866310160428	6	33	mm	74.866310160428	89	       141
Frame#	Time	Sacral			L.Shoulder			Chest			R.Shoulder			Neck			R.ASIS			L.ASIS			R.Thigh.Superior			R.Thigh.Lateral			R.Thigh.Inferior			R.Patella			L.Thigh.Superior			L.Thigh.Lateral			L.Thigh.Inferior			L.Patella			L.Shank.Superior			L.Shank.Lateral			L.Shank.Inferior			R.Shank.Superior			R.Shank.Lateral			R.Shank.Inferior			R.Heel			R.Midfoot.Superior			R.Midfoot.Lateral			R.Toe			L.Heel			L.Midfoot.Lateral			L.Midfoot.Superior			L.Toe			L.Elbow			L.Wrist			R.Elbow			R.Wrist			
		X1	Y1	Z1	X2	Y2	Z2	X3	Y3	Z3	X4	Y4	Z4	X5	Y5	Z5	X6	Y6	Z6	X7	Y7	Z7	X8	Y8	Z8	X9	Y9	Z9	X10	Y10	Z10	X11	Y11	Z11	X12	Y12	Z12	X13	Y13	Z13	X14	Y14	Z14	X15	Y15	Z15	X16	Y16	Z16	X17	Y17	Z17	X18	Y18	Z18	X19	Y19	Z19	X20	Y20	Z20	X21	Y21	Z21	X22	Y22	Z22	X23	Y23	Z23	X24	Y24	Z24	X25	Y25	Z25	X26	Y26	Z26	X27	Y27	Z27	X28	Y28	Z28	X29	Y29	Z29	X30	Y30	Z30	X31	Y31	Z31	X32	Y32	Z32	X33	Y33	Z33	

89	9.135428571429	773.617349019169	998.355959750651	499.366594164130	945.814203002437	1430.679955986708	315.093830978291	1038.682769098820	1371.568366210162	484.781640491922	940.120014313074	1443.394962902575	651.518693070632	915.231663300850	1495.392366405724	469.463118229071	1003.267252304478	946.059182871743	625.803283939996	996.846268548681	964.894883641660	350.271232376547	1058.108186610389	748.395658803012	594.015512157678	985.597080715888	634.990829902967	658.645175371347	1064.890431587132	587.046233768698	577.517350664729	1070.667740033345	500.363911962197	585.273423713903	1022.658158718063	738.391429641416	373.552394730460	921.433831974328	630.265033311934	309.683511501094	999.724918227114	541.228228522462	367.289607426917	989.287952747613	460.909438997555	366.313382837897	931.024461478945	401.652095138559	360.801749550259	800.546494811579	331.760509548829	315.846930186300	812.754095758911	203.319296055587	374.694173389599	1047.861931601883	410.209775373235	597.249507281787	982.658615053771	305.322653819823	663.251825803350	1029.895582217551	210.598535427732	604.096842825236	903.768757301092	42.428901245604	580.296143932423	1073.425562010816	98.895017938201	615.617879194755	987.171091972321	37.071505262505	655.378768215845	1194.133736319208	50.148315085747	644.167272588389	643.363722009768	89.008090009772	418.836433897452	710.861878775139	60.762516881915	339.395559216398	807.069728158518	103.386548366924	358.389162461642	916.256029335655	36.611640632766	333.731520662135	970.689292473467	1082.699266322077	189.018530123286	1159.176100637945	901.009675719123	179.167776940475	894.078033640946	1101.544354465305	781.039694396230	1036.142572405286	882.948171168910	786.226351587208	
90	9.148785714286	774.307144241088	998.785211039835	503.523448506747	943.986824990330	1431.666596612641	318.350511133655	1038.635189099632	1372.469877362423	487.013057403835	941.618913251434	1443.816588343245	654.799971214040	914.747021375852	1496.002093786898	473.063955814342	1004.819153620813	946.849944948454	628.126615034854	996.268060250841	965.504967152727	352.935950198291	1057.409997653903	747.809097034758	596.862588555200	983.462508055164	635.106576090956	661.031702286241	1062.125175668118	586.478586005630	579.804935449824	1066.950420450775	499.929867415527	587.046149388470	1027.467959219403	740.426341956209	376.055086793487	930.440364557230	630.218123870952	311.118847753720	1011.696464277128	542.549851530400	368.245088925399	1002.222126429629	460.847843588364	365.991963403530	941.574279996819	401.926031171363	360.700717735335	808.584112797091	336.799393491334	316.067155133465	816.646943118814	207.715076066892	373.672432228990	1043.875252693032	409.893713240129	598.764683804314	978.337509744677	305.002964194620	664.181593510205	1025.072801366779	210.315213901909	604.690066166536	898.486894446045	42.396982698428	580.372296330896	1068.209882328282	98.796187579298	615.755183920800	981.893760456214	37.010642870158	655.483704448003	1188.913779575737	49.872458233839	644.209672421733	643.223029458636	101.602524630050	417.823186861551	708.788784147736	68.683435063861	338.796784103642	806.972457313875	106.090119052766	357.062468273345	911.078984243416	35.796327632290	333.731189799521	964.864137149267	1082.989327665824	193.185114883230	1144.801761980353	892.650213108627	182.075810414106	903.132370769031	1101.414531837515	785.875768763704	1053.579526156003	888.652744392845	788.317667346917	
91	9.162142857143	774.841637833930	999.080940130128	507.688102259200	942.113198439579	1432.377478778113	321.490962004543	1038.600883188954	1373.132949045556	489.101216137460	943.238411359743	1444.086073690583	657.943015960562	914.311038414840	1496.412654835477	476.530774703759	1006.172571495050	947.434436148139	630.430118024391	995.440724160998	965.814876017548	355.611769647559	1056.623466888420	747.190432111284	599.702965825188	981.338438501637	635.162246696700	663.458837929630	1059.365772289519	585.900713520236	582.126391471942	1063.251021883799	499.473038222805	588.920210722118	1032.392052696245	742.632152626624	378.625794484202	940.055196684489	630.349128394832	312.375682704904	1024.168149388772	544.288810992607	369.235314037650	1015.819933356373	461.298827398747	365.829782925705	953.027888368599	402.528563341448	360.661529028651	817.747633721359	342.242393827400	316.142036132580	821.508439419074	212.758256425312	372.731567349754	1039.921574064731	409.534110963191	600.338353112845	974.070291301887	304.634081175987	665.193575837149	1020.264098133830	209.990594472187	605.312994961050	893.175956339904	42.380214612423	580.460742325722	1062.985355020065	98.656625582105	615.909006658266	976.586438413357	36.934038401031	655.590374087911	1183.684092183325	49.490429693483	644.267484471343	644.202491829747	115.691137836273	416.797682423884	707.503811922957	78.018087794505	338.177754108057	807.554548931873	109.508942884810	355.887990983647	905.929366821418	34.830835571997	333.790089440290	958.920611331645	1083.027922914868	197.315528312861	1129.793857097008	884.355649041075	185.192608580307	912.272150192226	1101.412670181666	790.650064032060	1071.312543403144	895.221354046297	790.000312349461	
92	9.175500000000	775.211317241803	999.215532847041	511.827748734949	940.230280674837	1432.787309301504	324.484984716785	1038.583173321502	1373.525712600833	491.032089507375	944.960616255872	1444.187049757079	660.921127612961	913.954592796154	1496.617493498334	479.825723638820	1007.315962250172	947.794846219656	632.691882986371	994.396826228113	965.831275678173	358.239474096252	1055.819918957307	746.572281553947	602.425251928449	979.371158097543	635.159449888808	665.870193894952	1056.733832811626	585.324977576634	584.390427782302	1059.709913311812	498.983447957247	590.822371410297	1037.311706290421	745.032950138922	381.231820620157	950.059593171590	630.724317449416	313.480622761424	1036.871028118944	546.505054353359	370.284212702898	1029.840089542672	462.331085076825	365.880740684668	965.163226632572	403.515135107518	360.747552152782	827.842038614433	348.046414687734	316.137898379020	827.236163338785	218.398430780194	371.968524803529	1036.116511076662	409.122098234351	601.912038271527	969.954781860083	304.232149521941	666.265980053492	1015.532350082159	209.622867805931	605.937843263603	887.844684656461	42.379162299733	580.573395923823	1057.759647200376	98.487126984412	616.074489352038	971.259061364940	36.849314868300	655.703835609131	1178.452725131926	49.024830141441	644.347615498908	646.327884827403	130.989384974951	415.847011914791	707.098229986616	88.654163654046	337.595721880179	808.819039500284	113.696222065704	354.954184890235	900.944432556006	33.740256382074	333.900384508813	952.835597044113	1082.770340413290	201.419482485068	1114.216619390112	876.203714878868	188.509808258424	921.492809813931	1101.510083299083	795.320799595056	1089.242761115501	902.660917497013	791.243365580281	
93	9.188857142857	775.417816938854	999.188751529593	515.909573089296	938.371799952647	1432.902321653501	327.305780171361	1038.581626714543	1373.647771838509	492.794019179580	946.762931727444	1444.130856472929	663.710162504793	913.701449491266	1496.635875819994	482.913369282127	1008.248804858586	947.937858335177	634.885274875789	993.171454297436	965.596640069144	360.763580477570	1055.049857578170	745.978303326069	604.943907046127	977.650060372503	635.099409673689	668.209325221510	1054.310341391461	584.759207183632	586.520653286142	1056.425057048660	498.454308315408	592.679983031109	1042.108861699305	747.659459527550	383.836674838684	960.197069803028	631.413493259267	314.474607486985	1049.525216715699	549.249342982345	371.401776594208	1044.018280450666	463.996917249842	366.167226749398	977.720349402365	404.939493532421	361.001005380642	838.617837466335	354.149733995708	316.130863256150	833.703543923036	224.541669580428	371.463602569318	1032.535893990118	408.654952798952	603.427780711862	966.047650520864	303.813837810372	667.363033997276	1010.919036991212	209.216977754208	606.535950398912	882.502308635221	42.391811204391	580.715079750735	1052.537714423282	98.301858784277	616.244522621213	965.920575300548	36.763972923360	655.823882130930	1173.224457026915	48.507949765900	644.453831112752	649.583464806801	147.060443225130	415.067307035995	707.657313574961	100.334695790911	337.112985314663	810.786265855956	118.638591482579	354.324370300067	896.345631154702	32.591451906077	334.039814445286	946.585918514916	1082.207075305941	205.516497457074	1098.130859947733	868.276074607454	192.021066741694	930.802798232690	1101.698806329613	799.838092302304	1107.255147649430	910.970927705835	792.019646587020	
94	9.202214285714	775.472142878756	999.028910234115	519.901383874606	936.566674596915	1432.759275401745	329.933175839678	1038.594067547850	1373.528858183913	494.379060000639	948.622903115921	1443.954332979345	666.290529930854	913.566197509263	1496.509372547460	485.764227531700	1008.980841020234	947.891793414193	636.983080322537	991.797204692800	965.183123826109	363.139287627756	1054.338207773818	745.421936760216	607.203884216756	976.203135347918	634.984354104645	670.423471959084	1052.130704943663	584.206989747525	588.461170221959	1053.443783726719	497.883738898426	594.427565571187	1046.671890305989	750.540785333968	386.403222433222	970.193402547226	632.479521249198	315.405165935262	1061.858931351596	552.553994655750	372.580465440317	1058.080929994709	466.325959718255	366.677379503043	990.422071977162	406.844336564711	361.435695093128	849.792776323821	360.462849637472	316.198975307272	840.780948231084	231.042448431918	371.269208298138	1029.210937020432	408.136420568137	604.833168108690	962.364069875668	303.395326397780	668.441852094034	1006.441550536794	208.783552407586	607.080975048693	877.156632340759	42.414477392593	580.883554150742	1047.320972758252	98.115484176468	616.410847500888	960.577109472352	36.684510812897	655.946784168172	1167.999646549411	47.975665708197	644.585580463991	653.922233800541	163.318366197786	414.554511629469	709.265138306569	112.650846470117	336.789843664363	813.508796442613	124.237094811626	354.026915725187	892.452083700715	31.493237301623	334.166857632014	940.152625146329	1081.366606282541	209.631464619852	1081.595740935897	860.661174831353	195.725224224318	940.214989618486	1101.992566139468	804.144474540278	1125.222654110380	920.145984788492	792.306010301991	
